<?xml version="1.0" encoding="iso-8859-1"?>
<!-- Uploaded to: SVG Repo, www.svgrepo.com, Generator: SVG Repo Mixer Tools -->
<svg height="800px" width="800px" version="1.1" id="Layer_1" xmlns="http://www.w3.org/2000/svg" xmlns:xlink="http://www.w3.org/1999/xlink" 
	 viewBox="0 0 512 512" xml:space="preserve">
<path style="fill:#FFDB2D;" d="M447.147,512H64.853c-9.425,0-17.067-7.641-17.067-17.067V17.067C47.787,7.641,55.428,0,64.853,0
	h251.629c4.526,0,8.867,1.798,12.067,4.999l130.665,130.665c3.201,3.201,4.999,7.541,4.999,12.067v347.202
	C464.213,504.359,456.572,512,447.147,512z"/>
<g>
	<path style="fill:#FF9900;" d="M459.214,135.663L328.55,4.999C325.35,1.798,321.008,0,316.482,0H256v512h191.147
		c9.425,0,17.067-7.641,17.067-17.067V147.731C464.213,143.204,462.415,138.863,459.214,135.663z"/>
	<path style="fill:#FF9900;" d="M381.156,337.92H130.844c-9.425,0-17.067-7.641-17.067-17.067s7.641-17.067,17.067-17.067h250.311
		c9.425,0,17.067,7.641,17.067,17.067S390.581,337.92,381.156,337.92z"/>
	<path style="fill:#FF9900;" d="M381.156,406.187H130.844c-9.425,0-17.067-7.641-17.067-17.067c0-9.425,7.641-17.067,17.067-17.067
		h250.311c9.425,0,17.067,7.641,17.067,17.067C398.222,398.545,390.581,406.187,381.156,406.187z"/>
	<path style="fill:#FF9900;" d="M381.156,270.791H130.844c-9.425,0-17.067-7.641-17.067-17.067s7.641-17.067,17.067-17.067h250.311
		c9.425,0,17.067,7.641,17.067,17.067S390.581,270.791,381.156,270.791z"/>
</g>
<g>
	<path style="fill:#FF4F19;" d="M333.369,10.011l-5.013-5.013C325.155,1.798,320.815,0,316.289,0h-17.053v147.911
		c0,9.425,7.641,17.067,17.067,17.067h147.911v-17.053c0-4.526-1.798-8.867-4.998-12.067l-5.013-5.013H333.369V10.011z"/>
	<path style="fill:#FF4F19;" d="M381.156,303.787H256v34.133h125.156c9.425,0,17.067-7.641,17.067-17.067
		S390.581,303.787,381.156,303.787z"/>
	<path style="fill:#FF4F19;" d="M381.156,372.053H256v34.133h125.156c9.425,0,17.067-7.641,17.067-17.067
		C398.222,379.695,390.581,372.053,381.156,372.053z"/>
	<path style="fill:#FF4F19;" d="M381.156,236.658H256v34.133h125.156c9.425,0,17.067-7.641,17.067-17.067
		S390.581,236.658,381.156,236.658z"/>
</g>
</svg>