<?xml version="1.0" encoding="iso-8859-1"?>
<!-- Uploaded to: SVG Repo, www.svgrepo.com, Generator: SVG Repo Mixer Tools -->
<svg height="800px" width="800px" version="1.1" id="Layer_1" xmlns="http://www.w3.org/2000/svg" xmlns:xlink="http://www.w3.org/1999/xlink" 
	 viewBox="0 0 507.6 507.6" xml:space="preserve">
<path style="fill:#F4EFEF;" d="M482.2,470c0,17.6-14.4,31.6-31.6,31.6H38.2c-17.6,0-31.6-14.4-31.6-31.6V57.2
	c0-17.6,14.4-31.6,31.6-31.6h412.4c17.6,0,31.6,14.4,31.6,31.6V470L482.2,470z"/>
<path style="fill:#E8E3E3;" d="M359,210.4c-3.2,3.2-3.2,8.8,0,12.4c1.6,1.6,4,2.4,6,2.4c2.4,0,4.4-0.8,6-2.4L483.8,110
	c24-24,24-62.8,0-86.8s-62.8-24-86.8,0l-21.6,21.6L258.6,161.6c-1.6,1.6-2.4,4-2.4,6c0,2.4,0.8,4.4,2.4,6l49.2,49.2
	c3.2,3.2,8.8,3.2,12.4,0L445.8,97.2c3.2-3.2,3.2-8.8,0-12.4l-24.4-24.4c-1.6-1.6-4-2.4-6-2.4c-2.4,0-4.4,0.8-6,2.4L309,160.8
	c-3.6,3.2-3.6,8.8,0,12.4c3.2,3.2,8.8,3.2,12.4,0l94.4-94.4l12.4,12.4L314.6,204.8L277.8,168L410.2,35.6c17.2-17.2,45.2-17.2,62.4,0
	c17.2,17.2,17.2,45.2,0,62.4L359,210.4"/>
<path d="M246.2,139.6h-172c-2.4,0-4-1.6-4-4s1.6-4,4-4h172c2.4,0,4,1.6,4,4S248.6,139.6,246.2,139.6z"/>
<path d="M138.2,179.6h-64c-2.4,0-4-1.6-4-4s1.6-4,4-4h64c2.4,0,4,1.6,4,4S140.6,179.6,138.2,179.6z"/>
<path d="M226.2,179.6h-56c-2.4,0-4-1.6-4-4s1.6-4,4-4h56c2.4,0,4,1.6,4,4S228.6,179.6,226.2,179.6z"/>
<path d="M266.2,219.6h-192c-2.4,0-4-1.6-4-4s1.6-4,4-4h192c2.4,0,4,1.6,4,4S268.6,219.6,266.2,219.6z"/>
<path d="M406.2,259.6h-332c-2.4,0-4-1.6-4-4s1.6-4,4-4h332c2.4,0,4,1.6,4,4S408.6,259.6,406.2,259.6z"/>
<path d="M406.2,379.6h-332c-2.4,0-4-1.6-4-4s1.6-4,4-4h332c2.4,0,4,1.6,4,4S408.6,379.6,406.2,379.6z"/>
<path d="M138.2,299.6h-64c-2.4,0-4-1.6-4-4s1.6-4,4-4h64c2.4,0,4,1.6,4,4S140.6,299.6,138.2,299.6z"/>
<path d="M406.2,299.6h-236c-2.4,0-4-1.6-4-4s1.6-4,4-4h236c2.4,0,4,1.6,4,4S408.6,299.6,406.2,299.6z"/>
<path d="M406.2,339.6h-80c-2.4,0-4-1.6-4-4s1.6-4,4-4h80c2.4,0,4,1.6,4,4S408.6,339.6,406.2,339.6z"/>
<path d="M290.2,339.6h-216c-2.4,0-4-1.6-4-4s1.6-4,4-4h216c2.4,0,4,1.6,4,4S292.6,339.6,290.2,339.6z"/>
<path d="M138.2,419.6h-64c-2.4,0-4-1.6-4-4s1.6-4,4-4h64c2.4,0,4,1.6,4,4S140.6,419.6,138.2,419.6z"/>
<path d="M406.2,419.6h-236c-2.4,0-4-1.6-4-4s1.6-4,4-4h236c2.4,0,4,1.6,4,4S408.6,419.6,406.2,419.6z"/>
<path d="M451.4,507.6H39c-20.4,0-38.8-17.2-38.8-36.4V54.8c0-17.2,15.2-30.4,41.6-35.2c0.4,0,0.4,0,0.8,0h355.6c2.4,0,4,1.6,4,4
	s-1.6,4-4,4H43c-10.8,2-34.8,8.8-34.8,27.2v416.4c0,14.4,15.2,28.4,30.8,28.4h412.4c16.4,0,24.8-14.4,24.8-28.4V117.6
	c0-2.4,1.6-4,4-4s4,1.6,4,4v353.6C484.2,492,470.2,507.6,451.4,507.6z"/>
<path d="M315.4,228.4c-3.2,0-6.4-1.2-8.8-3.6l-49.2-49.2c-2.4-2.4-3.6-5.6-3.6-8.8c0-3.2,1.2-6.4,3.6-8.8L374.2,41.2
	c1.6-1.6,4-1.6,5.6,0s1.6,4,0,5.6L263,163.6c-0.8,0.8-1.2,2-1.2,3.2s0.4,2.4,1.2,3.2l49.2,49.2c1.6,1.6,4.8,1.6,6.8,0L444.6,93.6
	c0.8-0.8,1.2-2,1.2-3.2s-0.4-2.4-1.2-3.2l-24.8-24.8c-1.6-1.6-4.8-1.6-6.8,0L312.6,162.8c-0.8,0.8-1.2,2-1.2,3.2s0.4,2.4,1.2,3.2
	c0.8,0.8,2,1.2,3.2,1.2l0,0c1.2,0,2.4-0.4,3.2-1.2l94.4-94.4c1.6-1.6,4-1.6,5.6,0l12.4,12.4c0.8,0.8,1.2,1.6,1.2,2.8
	c0,1.2-0.4,2-1.2,2.8L317.8,206.4c-1.6,1.6-4,1.6-5.6,0l-36.8-36.8c-0.8-0.8-1.2-1.6-1.2-2.8s0.4-2,1.2-2.8L407.8,31.6
	c9.2-9.2,21.2-14,34-14s24.8,4.8,34,14c18.8,18.8,18.8,49.2,0,68L363,212.4c-1.6,1.6-4,1.6-5.6,0s-1.6-4,0-5.6L470.2,93.6
	c15.6-15.6,15.6-41.2,0-56.8c-7.6-7.6-17.6-11.6-28.4-11.6c-10.8,0-20.8,4-28.4,11.6L284.2,166l31.2,31.2l108-108l-6.8-6.8L325,174
	c-2.4,2.4-5.6,3.6-8.8,3.6l0,0c-3.2,0-6.4-1.2-8.8-3.6c-2.4-2.4-3.6-5.6-3.6-8.8c0-3.2,1.2-6.4,3.6-8.8L407.8,56
	c4.8-4.8,13.2-4.8,18,0l24.4,24.4c2.4,2.4,3.6,5.6,3.6,8.8s-1.2,6.4-3.6,8.8L324.6,223.6C321.8,226.8,318.6,228.4,315.4,228.4z"/>
<path d="M366.2,228.4c-3.2,0-6.4-1.2-8.8-3.6c-2.4-2.4-3.6-5.6-3.6-8.8c0-3.2,1.2-6.4,3.6-8.8c1.6-1.6,4-1.6,5.6,0s1.6,4,0,5.6
	c-0.8,0.8-1.2,2-1.2,3.2s0.4,2.4,1.2,3.2c1.6,1.6,4.8,1.6,6.8,0l112.8-112.8c10.8-10.8,16.8-25.2,16.8-40.8s-6-29.6-16.8-40.8
	c-22.4-22.4-58.8-22.4-81.2,0c-1.6,1.6-4,1.6-5.6,0s-1.6-4,0-5.6c25.6-25.6,67.2-25.6,92.4,0c12.4,12.4,19.2,28.8,19.2,46.4
	s-6.8,34-19.2,46.4L375.4,224.8C372.6,226.8,369.4,228.4,366.2,228.4z"/>
</svg>