<?xml version="1.0" ?>
<!-- Uploaded to: SVG Repo, www.svgrepo.com, Generator: SVG Repo Mixer Tools -->
<svg width="800px" height="800px" viewBox="0 0 512 512" id="Layer_1" version="1.1" xml:space="preserve" xmlns="http://www.w3.org/2000/svg" xmlns:xlink="http://www.w3.org/1999/xlink">
<style type="text/css">
	.st0{fill:#D3F0FD;}
	.st1{fill:#FFFFFF;}
	.st2{fill:#7BDE9E;}
	.st3{fill:#A7E9BF;}
	.st4{fill:#EDEDED;}
	.st5{fill:#333333;}
	.st6{fill:#A6E1FB;}
	.st7{fill:#D3D9D9;}
	.st8{fill:#A8B2B4;}
	.st9{fill:#FC8A8A;}
	.st10{fill:#FEDD8E;}
	.st11{fill:#F96363;}
	.st12{fill:#FDD267;}
	.st13{fill:#50D27E;}
	.st14{fill:#A8B1B3;}
	.st15{fill:#D3D8D9;}
	.st16{fill:#7C8B8E;}
</style>
<g>
<g>
<g>
<g>
<g>
<path class="st0" d="M487.2,76.4v278.3c0,15.6-12.7,28.3-28.3,28.3H53.1c-15.6,0-28.3-12.7-28.3-28.3V76.4H487.2z"/>
</g>
<g>
<path class="st1" d="M453.7,125.4v46.1c0,6.2-5.1,11.3-11.3,11.3H69.6c-6.2,0-11.3-5.1-11.3-11.3v-46.1       c0-6.2,5.1-11.3,11.3-11.3h372.8C448.7,114.1,453.7,119.1,453.7,125.4z"/>
</g>
<g>
<path class="st2" d="M131.8,114.1H69.6c-6.2,0-11.3,5.1-11.3,11.3v46.1c0,6.2,5.1,11.3,11.3,11.3h62.2V114.1z"/>
</g>
<g>
<path class="st3" d="M95,182.8H69.6c-6.2,0-11.3-5.1-11.3-11.3v-46.1c0-6.2,5.1-11.3,11.3-11.3H95c-6.2,0-11.3,5.1-11.3,11.3       v46.1C83.7,177.7,88.7,182.8,95,182.8z"/>
</g>
<g>
<path class="st4" d="M453.7,125.4v46.1c0,6.2-5.1,11.3-11.3,11.3H417c6.2,0,11.3-5.1,11.3-11.3v-46.1c0-6.2-5.1-11.3-11.3-11.3       h25.4C448.7,114.1,453.7,119.1,453.7,125.4z"/>
</g>
<path class="st5" d="M442.4,110.1H69.6c-8.4,0-15.3,6.9-15.3,15.3v46.1c0,8.4,6.9,15.3,15.3,15.3h372.8      c8.4,0,15.3-6.9,15.3-15.3v-46.1C457.7,116.9,450.9,110.1,442.4,110.1z M62.3,171.5v-46.1c0-4,3.3-7.3,7.3-7.3h58.2v60.7H69.6      C65.5,178.8,62.3,175.5,62.3,171.5z M449.7,171.5c0,4-3.3,7.3-7.3,7.3H135.8v-60.7h306.6c4,0,7.3,3.3,7.3,7.3V171.5z"/>
<g>
<path class="st6" d="M487.2,76.4v278.3c0,15.6-12.7,28.3-28.3,28.3h-26.3c15.6,0,28.3-12.7,28.3-28.3V76.4H487.2z"/>
</g>
<g>
<path class="st7" d="M487.2,76.4V32.3c0-15.6-12.7-28.3-28.3-28.3H53.1C37.5,4,24.8,16.7,24.8,32.3v44.1H487.2z"/>
</g>
<g>
<path class="st4" d="M79.4,4C63.8,4,51.1,16.7,51.1,32.3v44.1H24.8V32.3C24.8,16.7,37.5,4,53.1,4H79.4z"/>
</g>
<g>
<path class="st8" d="M487.2,32.3v44.1H461V32.3C461,16.7,448.3,4,432.6,4h26.3C474.6,4,487.2,16.7,487.2,32.3z"/>
</g>
<g>
<g>
<g>
<circle class="st9" cx="67.6" cy="40.2" r="12.8"/>
</g>
<g>
<circle class="st10" cx="113.3" cy="40.2" r="12.8"/>
</g>
<g>
<circle class="st2" cx="159" cy="40.2" r="12.8"/>
</g>
</g>
<g>
<g>
<path class="st11" d="M80.4,40.2c0,7.1-5.7,12.9-12.8,12.9c-5.5,0-10.3-3.5-12.1-8.5c1.4,0.5,2.8,0.8,4.4,0.8         c7.1,0,12.8-5.7,12.8-12.8c0-1.5-0.3-3-0.8-4.4C76.9,29.9,80.4,34.7,80.4,40.2z"/>
</g>
<g>
<path class="st12" d="M126.1,40.2c0,7.1-5.8,12.9-12.8,12.9c-5.5,0-10.3-3.5-12.1-8.5c1.4,0.5,2.8,0.8,4.4,0.8         c7,0,12.8-5.7,12.8-12.8c0-1.5-0.3-3-0.8-4.4C122.6,29.9,126.1,34.7,126.1,40.2z"/>
</g>
<g>
<path class="st13" d="M171.9,40.2c0,7.1-5.8,12.9-12.8,12.9c-5.5,0-10.3-3.5-12.1-8.5c1.4,0.5,2.8,0.8,4.3,0.8         c7.1,0,12.9-5.7,12.9-12.8c0-1.5-0.3-3-0.8-4.4C168.3,29.9,171.9,34.7,171.9,40.2z"/>
</g>
</g>
<g>
<g>
<path class="st5" d="M67.6,57c-9.3,0-16.8-7.6-16.8-16.8s7.6-16.8,16.8-16.8s16.8,7.6,16.8,16.8S76.8,57,67.6,57z M67.6,31.3         c-4.9,0-8.8,4-8.8,8.8c0,4.9,4,8.8,8.8,8.8c4.9,0,8.8-4,8.8-8.8C76.4,35.3,72.4,31.3,67.6,31.3z"/>
</g>
<g>
<path class="st5" d="M113.3,57c-9.3,0-16.8-7.6-16.8-16.8s7.6-16.8,16.8-16.8s16.8,7.6,16.8,16.8S122.6,57,113.3,57z          M113.3,31.3c-4.9,0-8.8,4-8.8,8.8c0,4.9,4,8.8,8.8,8.8c4.9,0,8.8-4,8.8-8.8C122.1,35.3,118.2,31.3,113.3,31.3z"/>
</g>
<g>
<path class="st5" d="M159,57c-9.3,0-16.8-7.6-16.8-16.8s7.6-16.8,16.8-16.8c9.3,0,16.8,7.6,16.8,16.8S168.3,57,159,57z          M159,31.3c-4.9,0-8.8,4-8.8,8.8c0,4.9,4,8.8,8.8,8.8c4.9,0,8.8-4,8.8-8.8C167.9,35.3,163.9,31.3,159,31.3z"/>
</g>
</g>
<g>
<g>
<path class="st1" d="M457.3,40.2c0,7.1-5.8,12.8-12.8,12.8H231.9c-7.1,0-12.8-5.7-12.8-12.8c0-7.1,5.8-12.8,12.8-12.8h212.6         C451.5,27.3,457.3,33.1,457.3,40.2z"/>
</g>
</g>
<g>
<g>
<path class="st4" d="M457.3,40.2c0,7.1-5.8,12.8-12.8,12.8H231.9c-6.9,0-12.5-5.4-12.8-12.2c1.8,1,3.9,1.5,6.1,1.5h212.5         c7.1,0,12.9-5.7,12.9-12.8v-0.5C454.6,31.1,457.3,35.3,457.3,40.2z"/>
</g>
</g>
<g>
<g>
<path class="st5" d="M444.5,57H231.9c-9.3,0-16.8-7.6-16.8-16.8s7.6-16.8,16.8-16.8h212.6c9.3,0,16.8,7.6,16.8,16.8         S453.7,57,444.5,57z M231.9,31.3c-4.9,0-8.8,4-8.8,8.8s4,8.8,8.8,8.8h212.6c4.9,0,8.8-4,8.8-8.8s-4-8.8-8.8-8.8H231.9z"/>
</g>
</g>
</g>
</g>
</g>
</g>
<g>
<g>
<g>
<g>
<path class="st14" d="M355.3,414.1c-1.8,6-4.3,11.7-7.1,17.2l11.5,24.8l-30.6,30.6l-24.8-11.6c-5.5,2.9-11.2,5.3-17.2,7.1       l-9.4,25.7h-43.3l-9.4-25.7c-6-1.8-11.7-4.3-17.2-7.1l-24.8,11.5l-30.6-30.6l11.5-24.8c-2.9-5.5-5.3-11.2-7.1-17.2l-25.7-9.4       v-43.3l25.7-9.4c1.9-6,4.3-11.7,7.1-17.2L152.3,310l30.6-30.6l24.8,11.6c5.5-2.9,11.2-5.3,17.2-7.1l9.4-25.7h43.3l9.4,25.7       c6,1.9,11.7,4.3,17.2,7.1l24.8-11.5l30.6,30.6l-11.6,24.8c2.9,5.5,5.3,11.2,7.1,17.2l25.7,9.4v43.3L355.3,414.1z"/>
</g>
</g>
<g>
<path class="st15" d="M290.1,310.8c0,58.7-47.6,106.4-106.4,106.4c-11,0-21.6-1.7-31.6-4.8c0,0-0.1,0-0.1,0      c-3.3-1-6.5-2.2-9.6-3.5c0,0-0.1,0-0.1,0c-3.9-1.6-7.7-3.5-11.3-5.6v-41.8l25.7-9.4c1.9-6,4.3-11.7,7.1-17.2L152.3,310      l30.7-30.6l24.8,11.5c5.5-2.9,11.2-5.3,17.2-7.1l9.4-25.7h41.8c2.2,3.9,4.2,7.9,5.9,12c1.2,2.8,2.2,5.7,3.1,8.6      C288.4,288.8,290.1,299.6,290.1,310.8z"/>
</g>
<g>
<g>
<path class="st16" d="M355.3,414.1c-1.8,6-4.2,11.7-7.1,17.2l11.6,24.8l-30.6,30.7l-24.8-11.6c-5.5,2.9-11.2,5.3-17.2,7.1       l-9.4,25.7h-43.4l-9.4-25.7c-4.5-1.4-8.8-3.1-13.1-5.1c0.6,0,1.3,0,1.9,0c75.4,0,136.5-61.1,136.5-136.4c0-0.6,0-1.3,0-1.9       c2,4.2,3.7,8.6,5,13.1l25.7,9.4v43.3L355.3,414.1z"/>
</g>
</g>
<g>
<path class="st1" d="M331.5,383c0,41.7-33.8,75.5-75.5,75.5c-41.7,0-75.5-33.8-75.5-75.5c0-41.7,33.8-75.5,75.5-75.5      C297.7,307.6,331.5,341.3,331.5,383z"/>
</g>
<g>
<path class="st4" d="M331.5,383c0,41.7-33.8,75.5-75.5,75.5c-26.3,0-49.4-13.4-62.8-33.8c12,8,26.3,12.6,41.7,12.6      c41.7,0,75.5-33.8,75.5-75.4c0-15.4-4.6-29.8-12.6-41.8C318.1,333.7,331.5,356.8,331.5,383z"/>
</g>
<path class="st5" d="M458.9,0H53.1C35.3,0,20.8,14.5,20.8,32.3c0,38,0,320.3,0,322.4c0,17.8,14.5,32.3,32.3,32.3H127v17.6     c0,1.7,1.1,3.2,2.6,3.8l23.8,8.7c1.6,4.8,3.6,9.6,5.9,14.2l-10.7,23c-0.7,1.5-0.4,3.3,0.8,4.5l30.6,30.6c1.2,1.2,3,1.5,4.5,0.8     l23-10.7c4.7,2.3,9.4,4.3,14.2,5.9l8.7,23.9c0.6,1.6,2.1,2.6,3.8,2.6h43.3c1.7,0,3.2-1.1,3.8-2.6l8.7-23.9     c4.9-1.6,9.6-3.6,14.2-5.9l23,10.7c1.5,0.7,3.3,0.4,4.5-0.8l30.6-30.6c1.2-1.2,1.5-3,0.8-4.5l-10.7-23c2.3-4.6,4.3-9.4,5.9-14.2     l23.9-8.7c1.6-0.6,2.6-2.1,2.6-3.8V387h73.9c17.8,0,32.3-14.5,32.3-32.3c0-3.4,0-286.5,0-322.4C491.2,14.5,476.7,0,458.9,0z      M377,401.9l-23.1,8.4c-1.2,0.4-2.1,1.4-2.5,2.6c-1.7,5.6-4,11.2-6.9,16.5c-0.6,1.1-0.6,2.4-0.1,3.5l10.4,22.3l-26.7,26.7     l-22.3-10.4c-1.1-0.5-2.4-0.5-3.6,0.1c-5.3,2.8-10.8,5.1-16.5,6.9c-1.2,0.4-2.1,1.3-2.6,2.4l-8.4,23.1h-37.7l-8.4-23.1     c-0.4-1.2-1.4-2.1-2.6-2.5c-5.6-1.7-11.1-4-16.5-6.8c-1.1-0.6-2.4-0.6-3.5-0.1l-22.3,10.4l-26.7-26.7l10.4-22.3     c0.5-1.1,0.5-2.4-0.1-3.5c-2.8-5.4-5.1-11-6.9-16.6c-0.4-1.2-1.3-2.1-2.4-2.6l-23.1-8.4v-37.7l23.1-8.4c1.2-0.4,2.1-1.4,2.4-2.6     c1.8-5.7,4.1-11.3,6.9-16.5c0.6-1.1,0.6-2.4,0.1-3.6l-10.4-22.3l26.7-26.7l22.3,10.4c1.1,0.5,2.4,0.5,3.6-0.1     c5.4-2.8,10.9-5.1,16.5-6.9c1.2-0.4,2.1-1.3,2.6-2.5l8.4-23.1h37.7l8.4,23.1c0.4,1.2,1.4,2.1,2.6,2.4c5.8,1.8,11.3,4.1,16.5,6.9     c1.1,0.6,2.4,0.6,3.6,0.1l22.3-10.4l26.7,26.7l-10.4,22.3c-0.5,1.1-0.5,2.4,0.1,3.5c2.8,5.4,5.1,10.9,6.9,16.5     c0.4,1.2,1.3,2.1,2.5,2.6l23.1,8.4V401.9z M483.2,354.7c0,13.4-10.9,24.3-24.3,24.3H385v-17.7c0-1.7-1.1-3.2-2.6-3.8l-23.9-8.7     c-1.6-4.8-3.6-9.6-5.9-14.2l10.7-23c0.7-1.5,0.4-3.3-0.8-4.5l-30.6-30.6c-1.2-1.2-3-1.5-4.5-0.8l-23,10.7     c-4.5-2.3-9.3-4.3-14.2-5.9l-8.7-23.9c-0.6-1.6-2.1-2.6-3.8-2.6h-43.3c-1.7,0-3.2,1.1-3.8,2.6l-8.7,23.9     c-4.8,1.6-9.6,3.6-14.2,5.9l-23-10.7c-1.5-0.7-3.3-0.4-4.5,0.8l-30.6,30.6c-1.2,1.2-1.5,3-0.8,4.5l10.7,23     c-2.3,4.6-4.3,9.3-5.9,14.2l-23.9,8.7c-1.6,0.6-2.6,2.1-2.6,3.8V379H53.1c-13.4,0-24.3-10.9-24.3-24.3V80.4h454.4V354.7z      M483.2,72.4H28.8V32.3C28.8,18.9,39.7,8,53.1,8h405.8c13.4,0,24.3,10.9,24.3,24.3V72.4z"/>
</g>
<g>
<path class="st5" d="M256,462.5c-43.8,0-79.5-35.6-79.5-79.5c0-43.8,35.6-79.5,79.5-79.5c43.8,0,79.5,35.7,79.5,79.5     C335.5,426.9,299.8,462.5,256,462.5z M256,311.6c-39.4,0-71.5,32.1-71.5,71.5c0,39.4,32.1,71.5,71.5,71.5     c39.4,0,71.5-32.1,71.5-71.5C327.5,343.6,295.4,311.6,256,311.6z"/>
</g>
</g>
<g>
<path class="st1" d="M101.6,136.1c5.2,5.2,5.2,13.7,0,18.9c-5.2,5.2-13.7,5.2-18.9,0c-5.2-5.2-5.2-13.7,0-18.9    C87.9,130.9,96.4,130.9,101.6,136.1z"/>
<path class="st5" d="M114.1,161.8l-7.2-7.2c4.1-6.7,3.3-15.6-2.5-21.4c-6.8-6.8-17.8-6.8-24.6,0c-6.8,6.8-6.8,17.8,0,24.6    c5.5,5.5,14.3,6.8,21.4,2.5l7.2,7.2c1.6,1.6,4.1,1.6,5.7,0C115.6,165.9,115.6,163.4,114.1,161.8z M85.5,152.2    c-3.7-3.7-3.7-9.6,0-13.3c3.7-3.6,9.6-3.7,13.3,0c3.6,3.7,3.6,9.6,0,13.3C95.1,155.8,89.2,155.8,85.5,152.2z"/>
</g>
</g>
</svg>